<svg xmlns="http://www.w3.org/2000/svg" viewBox="0 0 56 56">
  <rect width="56" height="56" rx="11" fill="#1A3C6E"/>
  <g transform="translate(4,8) scale(0.856,0.72)" fill="#F5A623">
    <!-- Head -->
    <path d="M94,11 Q102,3 113,9 L125,20 L121,27 L115,33 Q107,39 97,37 Q87,33 86,23 Q86,15 94,11 Z"/>
    <!-- Body -->
    <path d="M93,36 Q84,43 82,52 L82,62 L90,78 L110,78 L118,62 L118,52 Q116,43 107,36 Q103,32 100,32 Q97,32 93,36 Z"/>
    <!-- Tail diamond -->
    <path d="M90,78 L83,95 L100,124 L117,95 L110,78 Z"/>
    <!-- Left upper blade -->
    <path d="M82,50 Q46,32 5,10 L10,24 Q48,44 80,62 Z"/>
    <!-- Left mid blade -->
    <path d="M79,63 Q48,57 18,46 L22,59 Q52,67 79,73 Z"/>
    <!-- Left lower blade -->
    <path d="M77,75 Q58,71 40,67 L43,77 Q60,79 77,81 Z"/>
    <!-- Right upper blade -->
    <path d="M118,50 Q154,32 195,10 L190,24 Q152,44 120,62 Z"/>
    <!-- Right mid blade -->
    <path d="M121,63 Q152,57 182,46 L178,59 Q148,67 121,73 Z"/>
    <!-- Right lower blade -->
    <path d="M123,75 Q142,71 160,67 L157,77 Q140,79 123,81 Z"/>
  </g>
</svg>
